#!OML:ASF H:\Punching\Project 1\Capture day 1\Session 1\female.ASF
:FULLY-SPECIFIED
:DEGREES
2372
root 0.824551 15.7177 5.95592 7.60845 -11.6418 2.98691
lowerback -3.47252 -3.08869 -3.73008
upperback -8.75034 -4.24043 -0.206038
thorax -6.94995 -1.89345 1.96615
lowerneck -10.1948 -8.87228 -3.73037
upperneck 30.4187 -12.7761 1.1718
head 11.9807 -6.14958 -0.660831
rclavicle -5.15846e-014 -2.45002e-014
rhumerus -40.2931 -13.2425 -69.007
rradius 30.9365
rwrist 6.74803
rhand -11.7958 -4.81318
rfingers 7.12502
rthumb 14.2537 -34.304
lclavicle -5.15846e-014 -2.45002e-014
lhumerus -47.6543 13.5154 74.7741
lradius 40.5823
lwrist -10.5534
lhand -5.9966 14.6164
lfingers 7.12502
lthumb 19.8356 43.6242
rfemur -16.959 7.42844 6.88424
rtibia 31.2891
rfoot -16.4839 -11.3792
rtoes -12.6718
lfemur -6.15417 -9.51626 -24.2569
ltibia 15.6971
lfoot -15.3842 25.3827
ltoes 3.72264
2373
root 0.864511 15.7187 5.94275 7.59602 -11.8218 3.0837
lowerback -3.34116 -3.08328 -3.81407
upperback -8.69987 -4.23996 -0.221777
thorax -6.96648 -1.88815 2.00235
lowerneck -10.2616 -8.84006 -3.65723
upperneck 30.3393 -12.7463 1.20605
head 11.9585 -6.12346 -0.656705
rclavicle 4.4975e-015 2.78299e-015
rhumerus -40.242 -13.1665 -69.1791
rradius 31.2045
rwrist 6.54656
rhand -11.8542 -4.74869
rfingers 7.12502
rthumb 14.1975 -34.2435
lclavicle 4.4975e-015 2.78299e-015
lhumerus -47.6561 13.581 74.9038
lradius 40.525
lwrist -10.6866
lhand -5.83408 14.5846
lfingers 7.12502
lthumb 19.9918 43.5762
rfemur -17.3541 7.21168 6.58586
rtibia 31.6704
rfoot -16.3114 -11.0066
rtoes -13.0085
lfemur -6.16449 -9.22722 -24.4977
ltibia 15.5229
lfoot -15.2055 25.2211
ltoes 3.77492
2374
root 0.905032 15.7196 5.92913 7.58058 -12.0089 3.17697
lowerback -3.2012 -3.07795 -3.89755
upperback -8.64743 -4.24007 -0.235733
thorax -6.98574 -1.88304 2.04059
lowerneck -10.3325 -8.80403 -3.57906
upperneck 30.2554 -12.7116 1.24031
head 11.9348 -6.09458 -0.652759
rclavicle -1.72943e-014 6.41081e-015
rhumerus -40.1883 -13.1003 -69.341
rradius 31.4559
rwrist 6.37797
rhand -11.911 -4.68574
rfingers 7.12502
rthumb 14.1427 -34.1844
lclavicle -1.72943e-014 6.41081e-015
lhumerus -47.6634 13.6597 75.0159
lradius 40.4417
lwrist -10.83
lhand -5.65944 14.5656
lfingers 7.12502
lthumb 20.1597 43.5395
rfemur -17.7736 6.98844 6.2924
rtibia 32.086
rfoot -16.1233 -10.6267
rtoes -13.3532
lfemur -6.16486 -8.92314 -24.7368
ltibia 15.3323
lfoot -15.0156 25.0438
ltoes 3.82476
2375
root 0.946112 15.7204 5.91538 7.55918 -12.2028 3.26837
lowerback -3.05694 -3.07314 -3.9796
upperback -8.59045 -4.24109 -0.249668
thorax -7.00261 -1.87859 2.07818
lowerneck -10.4079 -8.76342 -3.49437
upperneck 30.1674 -12.6715 1.27521
head 11.9099 -6.06247 -0.648966
rclavicle -8.39865e-015 -1.39149e-015
rhumerus -40.1287 -13.0668 -69.483
rradius 31.6817
rwrist 6.26674
rhand -11.9607 -4.60342
rfingers 7.12502
rthumb 14.0949 -34.1054
lclavicle -8.39865e-015 -1.39149e-015
lhumerus -47.6761 13.7489 75.112
lradius 40.3363
lwrist -10.9664
lhand -5.50987 14.5467
lfingers 7.12502
lthumb 20.3035 43.5054
rfemur -18.2117 6.76276 6.00137
rtibia 32.5348
rfoot -15.9136 -10.2404
rtoes -13.7248
lfemur -6.15164 -8.59178 -24.9771
ltibia 15.127
lfoot -14.8149 24.8404
ltoes 3.86895
